<svg xmlns="http://www.w3.org/2000/svg" xmlns:xlink="http://www.w3.org/1999/xlink" width="500" zoomAndPan="magnify" viewBox="0 0 375 374.999991" height="500" preserveAspectRatio="xMidYMid meet" version="1.0"><defs><g/></defs><g fill="#ffffff" fill-opacity="1"><g transform="translate(5.326275, 260.941214)"><g><path d="M 34.921875 -58.015625 C 38.585938 -58.015625 41.507812 -57.457031 43.6875 -56.34375 C 46.289062 -55.007812 48.300781 -53.175781 49.71875 -50.84375 C 51.132812 -48.507812 51.84375 -45.898438 51.84375 -43.015625 C 51.84375 -40.285156 51.117188 -37.769531 49.671875 -35.46875 C 48.234375 -33.164062 46.265625 -31.347656 43.765625 -30.015625 C 46.765625 -28.953125 49.289062 -27.113281 51.34375 -24.5 C 53.40625 -21.894531 54.4375 -18.953125 54.4375 -15.671875 C 54.4375 -12.785156 53.695312 -10.128906 52.21875 -7.703125 C 50.75 -5.285156 48.789062 -3.382812 46.34375 -2 C 45.125 -1.332031 43.765625 -0.832031 42.265625 -0.5 C 40.765625 -0.164062 38.765625 0 36.265625 0 L 10.59375 0 L 10.59375 -58.015625 Z M 34.921875 -58.015625 "/></g></g></g><g fill="#ffffff" fill-opacity="1"><g transform="translate(67.000645, 260.941214)"><g><path d="M 58.1875 0 L 3.5 0 L 30.84375 -59.265625 Z M 8.34375 -3.078125 L 53.34375 -3.078125 L 30.84375 -51.9375 Z M 8.34375 -3.078125 "/></g></g></g><g fill="#ffffff" fill-opacity="1"><g transform="translate(128.675014, 260.941214)"><g><path d="M 31.265625 1.5 C 23.203125 1.5 16.988281 -0.398438 12.625 -4.203125 C 8.257812 -8.015625 6.109375 -13.726562 6.171875 -21.34375 L 19.75 -21.34375 C 19.695312 -18.175781 20.644531 -15.757812 22.59375 -14.09375 C 24.539062 -12.425781 27.265625 -11.59375 30.765625 -11.59375 C 33.648438 -11.59375 35.925781 -12.0625 37.59375 -13 C 39.257812 -13.945312 40.09375 -15.394531 40.09375 -17.34375 C 40.09375 -18.945312 39.242188 -20.109375 37.546875 -20.828125 C 35.859375 -21.554688 34.179688 -22.070312 32.515625 -22.375 C 30.847656 -22.6875 29.816406 -22.867188 29.421875 -22.921875 C 25.140625 -23.753906 21.441406 -24.769531 18.328125 -25.96875 C 15.222656 -27.164062 12.613281 -28.984375 10.5 -31.421875 C 8.382812 -33.867188 7.328125 -37.09375 7.328125 -41.09375 C 7.328125 -45.09375 8.382812 -48.492188 10.5 -51.296875 C 12.613281 -54.109375 15.429688 -56.207031 18.953125 -57.59375 C 22.484375 -58.988281 26.335938 -59.6875 30.515625 -59.6875 C 35.566406 -59.6875 39.941406 -58.738281 43.640625 -56.84375 C 47.335938 -54.957031 50.238281 -52.097656 52.34375 -48.265625 C 53.40625 -46.429688 54.046875 -44.664062 54.265625 -42.96875 C 54.484375 -41.269531 54.59375 -39.617188 54.59375 -38.015625 L 41.015625 -38.015625 C 41.015625 -41.015625 40.207031 -43.222656 38.59375 -44.640625 C 36.976562 -46.054688 34.476562 -46.765625 31.09375 -46.765625 C 28.375 -46.765625 26.257812 -46.289062 24.75 -45.34375 C 23.25 -44.40625 22.5 -43.128906 22.5 -41.515625 C 22.5 -39.734375 23.5 -38.425781 25.5 -37.59375 C 27.507812 -36.757812 30.039062 -36.007812 33.09375 -35.34375 C 38.09375 -34.34375 41.992188 -33.382812 44.796875 -32.46875 C 47.609375 -31.550781 50.039062 -29.925781 52.09375 -27.59375 C 54.15625 -25.257812 55.1875 -21.976562 55.1875 -17.75 C 55.1875 -13.75 54.070312 -10.300781 51.84375 -7.40625 C 49.625 -4.519531 46.691406 -2.3125 43.046875 -0.78125 C 39.410156 0.738281 35.484375 1.5 31.265625 1.5 Z M 31.265625 1.5 "/></g></g></g><g fill="#ffffff" fill-opacity="1"><g transform="translate(190.349384, 260.941214)"><g><path d="M 31.671875 -33.84375 L 55.84375 0 L 9.171875 0 L 9.171875 -58.015625 L 55.84375 -58.015625 Z M 29.515625 -31.671875 L 12.25 -14.421875 L 12.25 -3.078125 L 49.9375 -3.078125 Z M 29.515625 -31.671875 "/></g></g></g><g fill="#ffffff" fill-opacity="1"><g transform="translate(252.023753, 260.941214)"><g><path d="M 10 -58.015625 L 52.265625 -58.015625 L 52.265625 -43.34375 L 25.171875 -43.34375 L 25.171875 -36.015625 L 47.6875 -36.015625 L 47.6875 -22.09375 L 25.171875 -22.09375 L 25.171875 -14.671875 L 52.265625 -14.671875 L 52.265625 0 L 10 0 Z M 10 -58.015625 "/></g></g></g><g fill="#ffffff" fill-opacity="1"><g transform="translate(313.698111, 260.941214)"><g><path d="M 29.34375 0 L 29.34375 -43.34375 L 7.421875 -43.34375 L 7.421875 -58.015625 L 54.265625 -58.015625 L 54.265625 -43.34375 L 32.34375 -43.34375 L 32.34375 0 Z M 29.34375 0 "/></g></g></g><g fill="#ffffff" fill-opacity="1"><g transform="translate(8.683598, 193.558427)"><g><path d="M 97.921875 0 L 5.890625 0 L 51.90625 -99.75 Z M 14.03125 -5.1875 L 89.796875 -5.1875 L 51.90625 -87.40625 Z M 14.03125 -5.1875 "/></g></g></g><g fill="#ffffff" fill-opacity="1"><g transform="translate(112.503281, 193.558427)"><g><path d="M 20.34375 -72.953125 L 20.34375 -97.640625 L 83.484375 -97.640625 L 83.484375 -72.953125 L 54.4375 -72.953125 L 54.4375 -24.6875 L 83.484375 -24.6875 L 83.484375 0 L 20.34375 0 L 20.34375 -24.6875 L 49.390625 -24.6875 L 49.390625 -72.953125 Z M 20.34375 -72.953125 "/></g></g></g></svg>