<svg xmlns="http://www.w3.org/2000/svg" width="24" height="22" fill="none" viewBox="0 0 24 22" id="wechat-pay">
  <path fill="#00C800" d="M22.6483 5.4011L8.80186 13.4025C8.38534 13.6425 7.85397 13.471 7.65513 13.034L5.41996 8.09223C5.2674 7.75626 5.65479 7.43402 5.95818 7.64313L8.77444 9.58692C9.04012 9.77032 9.38294 9.80289 9.67776 9.67091L21.8272 4.27152C19.6572 1.68838 16.0645 0 11.9986 0C5.37196 0 0 4.48578 0 10.0189C0 13.022 1.58382 15.7165 4.09154 17.554C4.4195 17.7768 4.54749 18.0534 4.47549 18.3836C4.4035 18.7139 4.2081 19.4372 3.88927 20.5537C3.78643 20.8039 3.81443 20.9931 3.97326 21.121C4.21152 21.313 4.4395 21.1587 4.55777 21.0919C4.67604 21.0251 6.82551 19.7978 7.24375 19.5612C7.55057 19.3881 7.86425 19.4344 8.07852 19.4909C8.12651 19.5047 8.17279 19.5184 8.22078 19.5304C8.23964 19.5355 8.25678 19.5406 8.27049 19.5441H8.27564C9.44807 19.8629 10.6994 20.036 12.0004 20.036C18.627 20.036 23.999 15.5502 23.999 10.0172C23.999 8.35105 23.5122 6.78095 22.65 5.39939L22.6483 5.4011Z"></path>
</svg>
